<svg xmlns="http://www.w3.org/2000/svg" viewBox="0 0 700 502"><rect width="700" height="502" fill="#343e48"/><g fill="none" stroke="#fff" stroke-width="8"><circle cx="130" cy="146" r="99"/><circle cx="430" cy="146" r="99"/><path d="M193 68 Q280 12 365 68 M152 45l30 14 M382 48l-28 10 M490 225l118 150"/><path stroke-width="10" d="M608 375q32-3 50 21q-5 17-46 39q-15-19-4-60Z"/></g><g stroke="#fff" stroke-width="1.1" fill-opacity=".9"><g fill="#c590e9"><circle cx="96" cy="96" r="9"/><circle cx="86" cy="104" r="9"/><circle cx="100" cy="110" r="9"/><circle cx="89" cy="91" r="7"/><circle cx="103" cy="88" r="7"/></g><g fill="#51b0e3"><circle cx="154" cy="138" r="10"/><circle cx="169" cy="136" r="10"/><circle cx="147" cy="124" r="8"/><circle cx="161" cy="122" r="9"/><circle cx="174" cy="123" r="8"/><circle cx="180" cy="138" r="7"/><circle cx="163" cy="150" r="8"/></g><g fill="#5abd72"><circle cx="90" cy="165" r="8"/><circle cx="78" cy="166" r="7"/><circle cx="86" cy="154" r="7"/><circle cx="97" cy="157" r="6"/></g><g fill="#df7099"><circle cx="145" cy="193" r="9"/><circle cx="131" cy="198" r="8"/><circle cx="140" cy="208" r="9"/><circle cx="151" cy="207" r="7"/><circle cx="139" cy="183" r="7"/></g><g stroke-width="1.5"><path fill="#78d283" d="M358 97q30 18 68 0q27-19 64 0q-40 23-64 8q-34-14-68 3Z"/><path fill="#77c8ed" d="M358 127q27 16 51 0q20-18 49 0q-29 17-49 9q-25-15-51 4Z"/><path fill="#be91e6" d="M358 157q28 20 59 0q24-17 56 0q-34 19-56 9q-30-17-59 5Z"/><path fill="#ec9bbe" d="M358 188q22 15 35 0q13-10 32 0q-20 14-32 9q-13-15-35 5Z"/></g></g><g fill="#fff" font-family="Arial,Helvetica,sans-serif"><text x="49" y="283" font-size="26">retina</text><text x="44" y="356" font-size="91" letter-spacing="-4">spectacle</text><text x="50" y="416" font-size="25">a tool for interacting with retinal scRNA-seq data</text><text x="50" y="460" font-size="16">Please select a dataset below</text><text x="524" y="460" font-size="15">v3.0</text></g></svg>
